<?xml version="1.0"?>
<svg xmlns="http://www.w3.org/2000/svg" xmlns:xlink="http://www.w3.org/1999/xlink" version="1.1" id="Capa_1" x="0px" y="0px" viewBox="0 0 512 512" style="enable-background:new 0 0 512 512;" xml:space="preserve" width="512px" height="512px"><g><g>
	<g>
		<path d="M320,64c-29.92,0-58.016,6.496-83.648,19.296c-7.904,3.936-11.104,13.536-7.136,21.44    c3.936,7.904,13.536,11.072,21.44,7.168C271.776,101.344,295.136,96,320,96c88.224,0,160,71.776,160,160s-71.776,160-160,160    c-27.04,0-53.44-6.816-76.608-19.872c-21.408-11.392-40.384-28.416-54.88-49.088l-47.36-68.16c-5.024-7.264-15.008-9.088-22.272-4    c-7.264,5.024-9.056,15.008-4.032,22.24l47.424,68.224c17.376,24.832,40.224,45.216,65.728,58.848    C255.648,439.776,287.456,448,320,448c105.888,0,192-86.112,192-192S425.888,64,320,64z" data-original="#000000" class="active-path" data-old_color="#000000" fill="#6438FE"/>
	</g>
</g><g>
	<g>
		<path d="M332.384,245.856l-48.576-59.136c-24.768-30.56-59.808-50.656-98.336-56.576c-8.224-1.44-16.8-2.144-25.472-2.144    C71.776,128,0,199.776,0,288c0,87.936,68.736,158.208,156.48,160c0.096,0,0.224,0,0.32,0c8.672,0,15.808-6.944,16-15.68    c0.16-8.832-6.848-16.128-15.68-16.32C86.944,414.56,32,358.336,32,288c0-77.344,70.624-139.68,148.288-126.272    c30.976,4.768,58.912,20.8,78.688,45.216l48.64,59.2c5.664,6.848,15.712,7.808,22.56,2.24    C336.992,262.752,337.984,252.672,332.384,245.856z" data-original="#000000" class="active-path" data-old_color="#000000" fill="#6438FE"/>
	</g>
</g></g> </svg>
