<svg _ngcontent-diu-c1="" height="32" width="32" xmlns="http://www.w3.org/2000/svg">
  <title _ngcontent-diu-c1="">Cruip</title>
  <defs _ngcontent-diu-c1="">
    <linearGradient _ngcontent-diu-c1="" id="a" x1="50%" x2="50%" y1="0%" y2="100%">
      <stop _ngcontent-diu-c1="" offset="0%" stop-color="#00F3CC"></stop>
      <stop _ngcontent-diu-c1="" offset="100%" stop-color="#00D1AF"></stop>
    </linearGradient>
    <linearGradient _ngcontent-diu-c1="" id="b" x1="100%" x2="-14.813%" y1="86.198%" y2="-4.357%">
      <stop _ngcontent-diu-c1="" offset="0%" stop-color="#9A8CFF"></stop>
      <stop _ngcontent-diu-c1="" offset="40.927%" stop-color="#7D6AFF"></stop>
      <stop _ngcontent-diu-c1="" offset="100%" stop-color="#7D6AFF"></stop>
    </linearGradient>
    <linearGradient _ngcontent-diu-c1="" id="c" x1="86.515%" x2="0%" y1="24.533%" y2="24.533%">
      <stop _ngcontent-diu-c1="" offset="0%" stop-color="#4126FF" stop-opacity="0"></stop>
      <stop _ngcontent-diu-c1="" offset="100%" stop-color="#4126FF"></stop>
    </linearGradient>
  </defs>
  <g _ngcontent-diu-c1="" fill="none" fill-rule="evenodd">
    <path _ngcontent-diu-c1=""
      d="M23.865 23.9a13.932 13.932 0 0 1-6.377 3.66c-1.115.286-2.284.44-3.488.44a13.893 13.893 0 0 1-10.512-4.797A13.968 13.968 0 0 1 .048 14c0-3.523 1.298-6.742 3.44-9.203A13.893 13.893 0 0 1 14 0c1.204 0 2.373.154 3.488.44a13.932 13.932 0 0 1 6.377 3.66l-4.933 4.95A6.942 6.942 0 0 0 14 7c-3.852 0-6.976 3.134-6.976 7l.002.18C7.122 17.964 10.208 21 14 21c1.926 0 3.67-.784 4.932-2.05l4.933 4.95z"
      fill="url(#b)" transform="translate(2 2)"></path>
    <path _ngcontent-diu-c1=""
      d="M18.932 9.05A6.942 6.942 0 0 0 14 7c-3.852 0-6.976 3.134-6.976 7a13.98 13.98 0 0 1 4.087-9.9A13.932 13.932 0 0 1 17.488.44l1.444 8.61z"
      fill="url(#c)" transform="translate(2 2)"></path>
  </g>
</svg>
