<svg xmlns="http://www.w3.org/2000/svg" viewBox="0 0 32 32"><path d="M9.11.43a55.42 55.42 0 0113.78 0 10 10 0 018.68 8.68A54.94 54.94 0 0132 16a54.94 54.94 0 01-.43 6.89 10 10 0 01-8.68 8.68A54.94 54.94 0 0116 32a54.94 54.94 0 01-6.89-.43 10 10 0 01-8.68-8.68 55.42 55.42 0 010-13.78A10 10 0 019.11.43" fill-rule="evenodd" fill="#f7fcff"></path><path d="M17.53 12.33c-.45 0-.64-.7-1.09-.7s-.64.7-1.1.7-.63-.7-1.09-.7-.56.48-.87.64a.43.43 0 01-.22.06c-.46 0-.64-.7-1.1-.7s-.64.7-1.09.7-.64-.7-1.09-.7V23c.45 0 .63-.71 1.09-.71s.64.71 1.09.71.64-.71 1.1-.71.64.71 1.09.71.64-.71 1.09-.71.64.71 1.1.71.64-.71 1.09-.71.64.71 1.09.71V11.63c-.45 0-.62.7-1.09.7zM15.16 16v.86H12.8a2 2 0 000 .34 1.76 1.76 0 000 .34h2.36v.87h-2c.07.08.14.17.22.25a2.06 2.06 0 001.44.6 2.09 2.09 0 001.46-.61l.73.73a3.08 3.08 0 01-2.19.91 2.88 2.88 0 01-1.44-.37A3.07 3.07 0 0112 18.41h-.93v-.87h.72a3.18 3.18 0 010-.34v-.34h-.72V16H12a3 3 0 011.4-1.51 2.88 2.88 0 011.44-.37A3.12 3.12 0 0117 15l-.73.74a2 2 0 00-1.46-.61 2 2 0 00-1.44.6 2.62 2.62 0 00-.22.25zM21 9.77c-.45 0-.64-.77-1.09-.77s-.64.77-1.1.77S18.2 9 17.75 9s-.64.77-1.09.77S16 9 15.56 9s-.64.77-1.09.77S13.83 9 13.38 9v2.12a1.3 1.3 0 01.87-.34 1.44 1.44 0 011.09.55 1.37 1.37 0 012.19 0 1.46 1.46 0 011.09-.55h.84v10.16a.65.65 0 00.48.31c.45 0 .64-.77 1.09-.77s.64.77 1.09.77V9c-.45 0-.63.77-1.09.77" fill="#60c0fe" fill-rule="evenodd"></path></svg>
