<svg xmlns="http://www.w3.org/2000/svg" viewBox="0 0 32 32"><path d="M9.11.43a55.42 55.42 0 0113.78 0 10 10 0 018.68 8.68A54.94 54.94 0 0132 16a54.94 54.94 0 01-.43 6.89 10 10 0 01-8.68 8.68A54.94 54.94 0 0116 32a54.94 54.94 0 01-6.89-.43 10 10 0 01-8.68-8.68 55.42 55.42 0 010-13.78A10 10 0 019.11.43" fill-rule="evenodd" fill="#fcf7f5"></path><path d="M22.13 9.87a.88.88 0 01.87.88v6.12H9v-6.12a.88.88 0 01.88-.88zM9 18.84v-1.09h14v1.09a.79.79 0 01-.87.66h-4.82l.44 1.75h.44a.44.44 0 010 .88h-4.38a.44.44 0 010-.88h.44l.44-1.75H9.88c-.49 0-.88-.3-.88-.66z" fill="#cd9c95" fill-rule="evenodd"></path></svg>
