<svg xmlns="http://www.w3.org/2000/svg" viewBox="0 0 32 32"><path d="M9.1.4c4.6-.6 9.2-.6 13.8 0 4.5.6 8.1 4.2 8.7 8.7.3 2.3.4 4.6.4 6.9 0 2.3-.1 4.6-.4 6.9-.6 4.5-4.1 8.1-8.7 8.7-2.3.3-4.6.4-6.9.4-2.3 0-4.6-.1-6.9-.4C4.6 31 1 27.4.4 22.9c-.6-4.6-.6-9.2 0-13.8C1 4.6 4.6 1 9.1.4" fill="#f5fcf6"></path><path d="M22 13.4h-3.5l1.8-1.8c.4-.4.4-1 0-1.4-.4-.4-1-.4-1.4 0l-3.2 3.2h-6c-.5.1-.8.5-.8 1 0 .4.4.7.8.8 0 0 0 6.1 1.7 6.6 2.9.5 5.9.5 8.7 0 1.7-.5 1.5-6.6 1.5-6.6h.4c.5.1.9-.3 1-.8.1-.5-.3-.9-.8-1H22zm-8.8 6.5h-.1c-.3 0-.6-.2-.6-.5l-.5-2.2c-.1-.3.1-.7.4-.8.3-.1.7.1.8.4v.2l.4 2.2c.2.3-.1.7-.4.7zm3.4-.6c0 .4-.3.7-.7.7-.4 0-.7-.3-.7-.7v-2.2c0-.4.3-.7.7-.7.4 0 .7.3.7.7v2.2zm2.8.1c-.1.3-.3.5-.6.5h-.1c-.4-.1-.6-.4-.5-.8l.4-2.2c.1-.4.4-.6.8-.5.4.1.6.4.5.8l-.5 2.2z" fill="#86da9a"></path></svg>
