<svg xmlns="http://www.w3.org/2000/svg" viewBox="0 0 32 32"><path d="M9.11.43a55.42 55.42 0 0113.78 0 10 10 0 018.68 8.68A54.94 54.94 0 0132 16a54.94 54.94 0 01-.43 6.89 10 10 0 01-8.68 8.68A54.94 54.94 0 0116 32a54.94 54.94 0 01-6.89-.43 10 10 0 01-8.68-8.68 55.42 55.42 0 010-13.78A10 10 0 019.11.43" fill-rule="evenodd" fill="#f7f9ff"></path><path d="M21.69 15.47a1.71 1.71 0 01-.82-1.24l-.28-2.85a1.75 1.75 0 00-1.73-1.51h-5.72a1.75 1.75 0 00-1.73 1.51l-.28 2.85a1.71 1.71 0 01-.82 1.24 2.61 2.61 0 00.44 4.73v1.05a.88.88 0 00.87.88h.88a.88.88 0 00.87-.88v-.87h5.26v.87a.88.88 0 00.87.88h.88a.88.88 0 00.87-.88V20.2a2.61 2.61 0 00.44-4.73zm-10.07 3.37a1.09 1.09 0 111.1-1.09 1.09 1.09 0 01-1.1 1.09zm.88-3.72l.33-3.12a.87.87 0 01.87-.75h4.6a.87.87 0 01.87.75l.33 3.15zm8.31 3.72a1.09 1.09 0 111.1-1.09 1.09 1.09 0 01-1.1 1.09z" fill="#6196ff" fill-rule="evenodd"></path></svg>
